<svg width="23" height="24" viewBox="0 0 23 24" fill="none" xmlns="http://www.w3.org/2000/svg">
<g id="icn bxs-star">
<path id="Vector" d="M21.0967 9.4125C21.0391 9.24268 20.9329 9.09347 20.7914 8.98328C20.65 8.8731 20.4793 8.80675 20.3005 8.79245L15.0714 8.37694L12.8086 3.36792C12.7365 3.20659 12.6193 3.06957 12.4711 2.97338C12.3229 2.8772 12.15 2.82596 11.9733 2.82587C11.7966 2.82577 11.6236 2.87681 11.4753 2.97283C11.327 3.06886 11.2096 3.20575 11.1374 3.36701L8.87456 8.37694L3.64541 8.79245C3.46972 8.80636 3.30176 8.8706 3.16162 8.97748C3.02148 9.08436 2.9151 9.22934 2.85521 9.39509C2.79531 9.56085 2.78444 9.74035 2.82388 9.91212C2.86333 10.0839 2.95143 10.2407 3.07764 10.3637L6.94195 14.1307L5.57527 20.0487C5.53377 20.2279 5.54707 20.4153 5.61345 20.5868C5.67982 20.7583 5.7962 20.9059 5.94749 21.0104C6.09877 21.1149 6.27798 21.1716 6.46185 21.173C6.64573 21.1744 6.82578 21.1205 6.97864 21.0183L11.973 17.6887L16.9673 21.0183C17.1236 21.122 17.3078 21.1754 17.4953 21.1713C17.6828 21.1672 17.8645 21.1057 18.0161 20.9953C18.1676 20.8848 18.2817 20.7305 18.343 20.5533C18.4042 20.376 18.4097 20.1843 18.3588 20.0038L16.6811 14.1335L20.8417 10.3893C21.1141 10.1435 21.2141 9.76013 21.0967 9.4125Z" fill="#F3CD03"/>
</g>
</svg>
